<svg width="18" height="18" viewBox="0 0 18 18" fill="none" xmlns="http://www.w3.org/2000/svg">
<g clip-path="url(#clip0_1_337)">
<path d="M5.15381 7.8796L6.47137 11.9347H10.7353L12.0529 7.8796L8.60334 5.37329L5.15381 7.8796Z" fill="#FFBD14"/>
<path d="M10.1929 0.543484C9.67149 0.44599 9.13987 0.39679 8.6034 0.39679C8.06693 0.39679 7.5353 0.44599 7.01392 0.543484L8.6034 1.69826L10.1929 0.543484Z" fill="#FFBD14"/>
<path d="M16.1548 4.87598L15.5479 6.74382L17.137 7.89836C17.0014 6.83523 16.6695 5.81412 16.1548 4.87598Z" fill="#FFBD14"/>
<path d="M12.288 16.7767C13.2537 16.3196 14.1219 15.6879 14.8572 14.9073H12.8954L12.288 16.7767Z" fill="#FFBD14"/>
<path d="M1.0519 4.87598C0.537176 5.81412 0.205374 6.83523 0.0697021 7.89836L1.65878 6.74382L1.0519 4.87598Z" fill="#FFBD14"/>
<path d="M2.34961 14.9073C3.0849 15.6879 3.9531 16.3196 4.91877 16.7767L4.31139 14.9073H2.34961Z" fill="#FFBD14"/>
<path d="M9.10748 4.49325L12.734 7.12817L14.5553 6.53645L15.4468 3.79267C14.4353 2.46674 13.0481 1.44246 11.4454 0.879883L9.10748 2.57828V4.49325Z" fill="#FFBD14"/>
<path d="M14.8668 7.49524L13.0456 8.08696L11.6604 12.3501L12.786 13.8993H15.6715C16.6044 12.5575 17.1657 10.9389 17.2044 9.19354L14.8668 7.49524Z" fill="#FFBD14"/>
<path d="M6.36202 12.9427L5.23645 14.4919L6.12949 17.2406C6.91334 17.4763 7.7437 17.6036 8.60337 17.6036C9.46304 17.6036 10.2934 17.4763 11.0773 17.2406L11.9703 14.492L10.8447 12.9427H6.36202Z" fill="#FFBD14"/>
<path d="M4.47271 7.12817L8.09925 4.49328V2.57832L5.76137 0.879883C4.15859 1.44246 2.77139 2.46674 1.75995 3.79267L2.65148 6.53645L4.47271 7.12817Z" fill="#FFBD14"/>
<path d="M5.5464 12.3501L4.16118 8.08696L2.33998 7.49524L0.00244141 9.19354C0.0411231 10.9389 0.602361 12.5575 1.53526 13.8993H4.42083L5.5464 12.3501Z" fill="#FFBD14"/>
</g>
<defs>
<clipPath id="clip0_1_337">
<rect width="17.2068" height="17.2068" fill="white" transform="translate(0 0.396606)"/>
</clipPath>
</defs>
</svg>
