<svg width="14" height="15" viewBox="0 0 14 15" fill="none" xmlns="http://www.w3.org/2000/svg">
<path d="M12.0333 5.54285C11.754 5.31239 11.4735 5.09943 11.1928 4.90417C11.6614 5.65849 11.9325 6.5477 11.9325 7.49916C11.9325 8.45061 11.6614 9.33983 11.1928 10.0941C11.4735 9.89889 11.754 9.6859 12.0333 9.45547C12.9779 8.67606 13.6769 7.88729 14 7.49916C13.677 7.11114 12.978 6.32234 12.0333 5.54285Z" fill="currentColor"/>
<path d="M1.96668 5.54285C1.02207 6.32226 0.323073 7.11103 0 7.49916C0.323073 7.88729 1.02207 8.67606 1.96668 9.45547C2.24596 9.68592 2.52648 9.89889 2.80718 10.0941C2.33861 9.3398 2.06754 8.45061 2.06754 7.49916C2.06754 6.5477 2.33861 5.65851 2.80718 4.90417C2.52648 5.09943 2.24596 5.31239 1.96668 5.54285Z" fill="currentColor"/>
<path d="M7.86753 2.0988L7.99675 1.28792C7.66798 1.23556 7.33265 1.20898 7.00002 1.20898C6.66737 1.20898 6.33203 1.23556 6.0033 1.28792L6.13251 2.0988C6.70473 2.00761 7.2952 2.00761 7.86753 2.0988Z" fill="currentColor"/>
<path d="M4.26549 2.76219C4.51617 2.61749 4.78053 2.49156 5.05119 2.38794L4.7576 1.62109C4.44668 1.74015 4.14298 1.88483 3.85494 2.0511C3.56688 2.21743 3.28973 2.40811 3.03125 2.61782L3.54857 3.25545C3.77355 3.07292 4.01478 2.90695 4.26549 2.76219Z" fill="currentColor"/>
<path d="M3.54857 11.7422L3.03125 12.3798C3.28973 12.5895 3.56688 12.7802 3.85497 12.9465C4.14298 13.1128 4.44668 13.2575 4.7576 13.3765L5.05119 12.6097C4.78053 12.5061 4.5162 12.3801 4.26552 12.2354C4.01478 12.0907 3.77355 11.9247 3.54857 11.7422Z" fill="currentColor"/>
<path d="M6.13255 12.9004L6.00342 13.7113C6.33232 13.7636 6.66766 13.7902 7.00012 13.7902C7.33274 13.7902 7.66808 13.7636 7.99684 13.7113L7.86763 12.9004C7.29541 12.9915 6.70529 12.9916 6.13255 12.9004Z" fill="currentColor"/>
<path d="M9.73456 12.2354C9.48382 12.3802 9.21948 12.5061 8.94885 12.6097L9.24245 13.3765C9.55331 13.2575 9.85701 13.1128 10.1451 12.9465C10.4331 12.7802 10.7103 12.5896 10.9688 12.3798L10.4515 11.7422C10.2265 11.9247 9.98526 12.0907 9.73456 12.2354Z" fill="currentColor"/>
<path d="M10.4514 3.25545L10.9687 2.61782C10.7102 2.40808 10.433 2.21743 10.1449 2.0511C9.85689 1.8848 9.55319 1.74012 9.2423 1.62109L8.94873 2.38794C9.21936 2.49153 9.4837 2.61746 9.73441 2.76219C9.98514 2.90695 10.2264 3.0729 10.4514 3.25545Z" fill="currentColor"/>
<path d="M11.6616 10.7673L11.3152 11.0083L11.8806 11.4671C12.0904 11.2086 12.281 10.9314 12.4474 10.6433C12.5935 10.3902 12.7229 10.125 12.8329 9.85352C12.743 9.93149 12.6506 10.0097 12.5558 10.0879C12.2619 10.3305 11.961 10.5591 11.6616 10.7673Z" fill="currentColor"/>
<path d="M12.5558 4.91039C12.6506 4.98855 12.7429 5.06683 12.8329 5.14481C12.7229 4.87327 12.5935 4.60809 12.4474 4.35497C12.281 4.0669 12.0904 3.78979 11.8806 3.53125L11.3152 3.99L11.6616 4.23101C11.961 4.43924 12.2619 4.66781 12.5558 4.91039Z" fill="currentColor"/>
<path d="M1.44406 10.0879C1.3493 10.0097 1.25696 9.93146 1.16699 9.85352C1.27699 10.125 1.4064 10.3902 1.55252 10.6433C1.71885 10.9314 1.90951 11.2085 2.11924 11.4671L2.6847 11.0083L2.33825 10.7673C2.03888 10.5591 1.73804 10.3305 1.44406 10.0879Z" fill="currentColor"/>
<path d="M2.33825 4.23101L2.6847 3.98999L2.11924 3.53125C1.90951 3.78976 1.71885 4.06688 1.55252 4.35497C1.4064 4.60811 1.27699 4.8733 1.16699 5.14481C1.25693 5.06683 1.3493 4.98858 1.44406 4.91039C1.73806 4.66784 2.03891 4.43927 2.33825 4.23101Z" fill="currentColor"/>
<path d="M6.99988 3.38867C4.72945 3.38867 2.88892 5.22921 2.88892 7.49964C2.88892 9.77007 4.72945 11.6106 6.99988 11.6106C9.27032 11.6106 11.1109 9.77007 11.1109 7.49964C11.1109 5.22921 9.27032 3.38867 6.99988 3.38867ZM9.35374 8.16828H8.53265V7.16699L6.95076 8.74888L6.30031 8.09841L5.15275 9.24597L4.57216 8.66537L6.30031 6.93722L6.95076 7.58769L7.95205 6.58639H6.95076V5.7653H9.35374V8.16828Z" fill="currentColor"/>
</svg>
