<svg width="10" height="11" viewBox="0 0 10 11" fill="none" xmlns="http://www.w3.org/2000/svg">
<g clip-path="url(#clip0_1_514)">
<path d="M2.99521 4.84916L3.76093 7.20582H6.23898L7.0047 4.84916L4.99995 3.39258L2.99521 4.84916Z" fill="currentColor"/>
<path d="M5.92373 0.585376C5.62073 0.528716 5.31176 0.500122 4.99998 0.500122C4.68821 0.500122 4.37924 0.528716 4.07623 0.585376L4.99998 1.25649L5.92373 0.585376Z" fill="currentColor"/>
<path d="M9.38869 3.10352L9.03598 4.18904L9.9595 4.86002C9.88067 4.24217 9.68784 3.64873 9.38869 3.10352Z" fill="currentColor"/>
<path d="M7.14145 10.02C7.70264 9.75432 8.20721 9.38721 8.63455 8.93359H7.49444L7.14145 10.02Z" fill="currentColor"/>
<path d="M0.611439 3.10352C0.312299 3.64873 0.119467 4.24217 0.0406189 4.86002L0.964135 4.18904L0.611439 3.10352Z" fill="currentColor"/>
<path d="M1.36557 8.93359C1.79289 9.38721 2.29746 9.75434 2.85868 10.02L2.50569 8.93359H1.36557Z" fill="currentColor"/>
<path d="M5.29306 2.88121L7.40068 4.41254L8.45912 4.06865L8.97724 2.47406C8.38943 1.70348 7.58324 1.1082 6.65175 0.78125L5.29306 1.7683V2.88121Z" fill="currentColor"/>
<path d="M8.64016 4.625L7.58174 4.96889L6.7767 7.44647L7.43086 8.34682H9.10784C9.65 7.56699 9.97618 6.62635 9.99866 5.61199L8.64016 4.625Z" fill="currentColor"/>
<path d="M3.69745 7.79102L3.0433 8.69135L3.56231 10.2888C4.01786 10.4258 4.50043 10.4998 5.00004 10.4998C5.49965 10.4998 5.98223 10.4258 6.43778 10.2888L6.95678 8.69137L6.30262 7.79102H3.69745Z" fill="currentColor"/>
<path d="M2.59936 4.41254L4.70698 2.88123V1.76832L3.34829 0.78125C2.4168 1.1082 1.61061 1.70348 1.0228 2.47406L1.54092 4.06865L2.59936 4.41254Z" fill="currentColor"/>
<path d="M3.22327 7.44648L2.41823 4.96889L1.35981 4.625L0.00131226 5.61199C0.0237927 6.62635 0.349965 7.56699 0.892133 8.34682H2.56912L3.22327 7.44648Z" fill="currentColor"/>
</g>
<defs>
<clipPath id="clip0_1_514">
<rect width="10" height="10" fill="white" transform="translate(0 0.5)"/>
</clipPath>
</defs>
</svg>
