<svg width="11" height="11" viewBox="0 0 11 11" fill="none" xmlns="http://www.w3.org/2000/svg">
<g clip-path="url(#clip0_1_507)">
<path d="M5.22976 10.9886C7.89274 10.9886 10.0901 8.99908 10.4179 6.42637C10.4631 6.07123 10.1863 5.75766 9.8288 5.75766H6.1206C5.62886 5.75766 5.22977 5.35855 5.22977 4.86683V1.1586C5.22977 0.801085 4.9162 0.524334 4.56105 0.569469C1.98833 0.898482 0 3.09586 0 5.75767C0 8.65227 2.33635 10.9886 5.22976 10.9886Z" fill="currentColor"/>
<path d="M6.471 0.016701C6.11703 -0.0284343 5.80585 0.250692 5.80585 0.605836V4.611C5.80585 4.93883 6.07188 5.20489 6.39973 5.20489H10.4061C10.7624 5.20489 11.0403 4.89369 10.9952 4.53974C10.6959 2.1832 8.82873 0.316019 6.471 0.016701Z" fill="currentColor"/>
</g>
<defs>
<clipPath id="clip0_1_507">
<rect width="11" height="11" fill="currentColor"/>
</clipPath>
</defs>
</svg>
