<svg width="38" height="38" viewBox="0 0 38 38" fill="none" xmlns="http://www.w3.org/2000/svg">
<path d="M36.1587 5.02149L34.4418 10.7445L32.7249 16.4675H36.887C37.5018 16.4675 38.0002 15.9691 38.0002 15.3542V9.28365C38.0002 7.63621 37.3098 6.10612 36.1587 5.02149Z" fill="#C82C24"/>
<path d="M0 9.28365V15.3542C0 15.9691 0.498453 16.4675 1.11328 16.4675H5.2754L1.84159 5.02149C0.690457 6.10612 0 7.63629 0 9.28365Z" fill="white"/>
<path d="M19.0001 4.76982C21.0163 4.76982 22.6566 3.12951 22.6566 1.11329V4.75213e-06H15.3436V1.11329C15.3436 3.12951 16.9839 4.76982 19.0001 4.76982Z" fill="white"/>
<path d="M24.8831 0.304692V1.11182C24.8831 4.35577 22.244 6.99492 19 6.99492C15.7561 6.99492 13.117 4.35577 13.117 1.11182V0.304692L3.80005 3.79854L7.55307 16.3087C7.58417 16.4125 7.60005 16.5202 7.60005 16.6286V36.8853C7.60005 37.5001 8.0985 37.9985 8.71333 37.9985H29.2868C29.9016 37.9985 30.4 37.5001 30.4 36.8853V16.6286C30.4 16.5202 30.4159 16.4125 30.447 16.3087L34.2 3.79854L24.8831 0.304692ZM27.268 13.6325C27.268 16.0397 24.5748 17.4558 24.2677 17.6094C24.1112 17.6876 23.9406 17.7269 23.7699 17.7269C23.5992 17.7269 23.4285 17.6876 23.272 17.6094C22.9649 17.4558 20.2717 16.0397 20.2717 13.6325V11.8439C20.2717 11.229 20.7702 10.7306 21.385 10.7306H26.1547C26.7696 10.7306 27.268 11.229 27.268 11.8439V13.6325Z" fill="#C82C24"/>
<path d="M22.4982 13.6342C22.4982 14.257 23.1866 14.9096 23.7698 15.3159C24.353 14.9097 25.0414 14.257 25.0414 13.6342V12.9588H22.4981L22.4982 13.6342Z" fill="#C82C24"/>
<path d="M36.1587 5.02149L34.4418 10.7445L32.7249 16.4675H36.887C37.5018 16.4675 38.0002 15.9691 38.0002 15.3542V9.28365C38.0002 7.63621 37.3098 6.10612 36.1587 5.02149Z" fill="white"/>
<path d="M0 9.28365V15.3542C0 15.9691 0.498453 16.4675 1.11328 16.4675H5.2754L1.84159 5.02149C0.690457 6.10612 0 7.63629 0 9.28365Z" fill="white"/>
<path d="M19.0001 4.76982C21.0163 4.76982 22.6566 3.12951 22.6566 1.11329V4.75213e-06H15.3436V1.11329C15.3436 3.12951 16.9839 4.76982 19.0001 4.76982Z" fill="white"/>
<path d="M24.8831 0.304692V1.11182C24.8831 4.35577 22.244 6.99492 19 6.99492C15.7561 6.99492 13.117 4.35577 13.117 1.11182V0.304692L3.80005 3.79854L7.55307 16.3087C7.58417 16.4125 7.60005 16.5202 7.60005 16.6286V36.8853C7.60005 37.5001 8.0985 37.9985 8.71333 37.9985H29.2868C29.9016 37.9985 30.4 37.5001 30.4 36.8853V16.6286C30.4 16.5202 30.4159 16.4125 30.447 16.3087L34.2 3.79854L24.8831 0.304692ZM27.268 13.6325C27.268 16.0397 24.5748 17.4558 24.2677 17.6094C24.1112 17.6876 23.9406 17.7269 23.7699 17.7269C23.5992 17.7269 23.4285 17.6876 23.272 17.6094C22.9649 17.4558 20.2717 16.0397 20.2717 13.6325V11.8439C20.2717 11.229 20.7702 10.7306 21.385 10.7306H26.1547C26.7696 10.7306 27.268 11.229 27.268 11.8439V13.6325Z" fill="white"/>
<path d="M22.4982 13.6342C22.4982 14.257 23.1866 14.9096 23.7698 15.3159C24.353 14.9097 25.0414 14.257 25.0414 13.6342V12.9588H22.4981L22.4982 13.6342Z" fill="white"/>
<path d="M36.1587 5.02149L34.4418 10.7445L32.7249 16.4675H36.887C37.5018 16.4675 38.0002 15.9691 38.0002 15.3542V9.28365C38.0002 7.63621 37.3098 6.10612 36.1587 5.02149Z" fill="white"/>
<path d="M0 9.28365V15.3542C0 15.9691 0.498453 16.4675 1.11328 16.4675H5.2754L1.84159 5.02149C0.690457 6.10612 0 7.63629 0 9.28365Z" fill="white"/>
<path d="M19.0001 4.76982C21.0163 4.76982 22.6566 3.12951 22.6566 1.11329V4.75213e-06H15.3436V1.11329C15.3436 3.12951 16.9839 4.76982 19.0001 4.76982Z" fill="white"/>
<path d="M24.8831 0.304692V1.11182C24.8831 4.35577 22.244 6.99492 19 6.99492C15.7561 6.99492 13.117 4.35577 13.117 1.11182V0.304692L3.80005 3.79854L7.55307 16.3087C7.58417 16.4125 7.60005 16.5202 7.60005 16.6286V36.8853C7.60005 37.5001 8.0985 37.9985 8.71333 37.9985H29.2868C29.9016 37.9985 30.4 37.5001 30.4 36.8853V16.6286C30.4 16.5202 30.4159 16.4125 30.447 16.3087L34.2 3.79854L24.8831 0.304692ZM27.268 13.6325C27.268 16.0397 24.5748 17.4558 24.2677 17.6094C24.1112 17.6876 23.9406 17.7269 23.7699 17.7269C23.5992 17.7269 23.4285 17.6876 23.272 17.6094C22.9649 17.4558 20.2717 16.0397 20.2717 13.6325V11.8439C20.2717 11.229 20.7702 10.7306 21.385 10.7306H26.1547C26.7696 10.7306 27.268 11.229 27.268 11.8439V13.6325Z" fill="currentColor"/>
<path d="M22.4982 13.6342C22.4982 14.257 23.1866 14.9096 23.7698 15.3159C24.353 14.9097 25.0414 14.257 25.0414 13.6342V12.9588H22.4981L22.4982 13.6342Z" fill="white"/>
<path d="M19.8636 9.5H29.3636V19H19.8636V9.5Z" fill="#D9D9D9"/>
<path d="M19 6.99492V6.99492C22.0596 6.70746 24.487 4.29305 24.7907 1.23504L24.8831 0.304692L34.5455 3.45455L30.6591 16.8409V38H19L19 6.99492Z" fill="white"/>
</svg>
